# xmcd
#
# Track frame offsets:
#	182
#	13292
#	29252
#	45775
#	61672
#	76127
#	95440
#	120380
#	132567
#	144512
#	162257
#	177087
#	186947
#	205130
#
# Disc length: 2998 seconds
#
# Revision: 5
# Processed by: cddbd v1.5.2PL0 Copyright (c) Steve Scherf et al.
# Submitted via: audiograbber 1.83.01
#
DISCID=b00bb40e
DTITLE=New Country Magazine - New Country June 1995
DYEAR=1995
DGENRE=Country
TTITLE0=John Bunzow - Desolation road
TTITLE1=Woody Lee - Get over it
TTITLE2=Todd Snider - Trouble
TTITLE3=Hank Williams Jr. - Hog wild
TTITLE4=Heather Myles - Indigo moon
TTITLE5=Russ Taff - One and only love
TTITLE6=Kim Richey - That's exactly what i mean
TTITLE7=Steve Earle - Hometown blues
TTITLE8=Jon Randall - I came straight to you
TTITLE9=The Cox Family - Lizzy and the rainman
TTITLE10=Kate MacKenmzie - Wainting out the storm
TTITLE11=The Traditional Grass - A broken heart keeps beatin'
TTITLE12=Vern Gosdin - I'll fly away
TTITLE13=Martin Sexton - Black sheep
EXTD=YEAR: 1995
EXTT0=
EXTT1=
EXTT2=
EXTT3=HANK WILLIAMS JR.
EXTT4=HEATHER MYLES
EXTT5=RUSS TAFF
EXTT6=KIM RICHEY
EXTT7=STEVE EARLE
EXTT8=JON RANDALL
EXTT9=THE COX FAMILY
EXTT10=KATE MacKENZIE
EXTT11=THE TRADITIONAL GRASS
EXTT12=VERN GOSDIN
EXTT13=MARTIN SEXTON
PLAYORDER=
